# xmcd
#
# Track frame offsets: 
#        150
#        5285
#        21412
#        45147
#        61255
#        77682
#        97310
#        112657
#        129360
#        149355
#        170220
#        186320
#        204267
#        231162
#        245224
#
# Disc length: 3500 seconds
#
# Revision: 0
# Processed by: cddbd v1.5.2PL0 Copyright (c) Steve Scherf et al.
# Submitted via: ExactAudioCopy v0.99pb4
#
DISCID=c80daa0f
DTITLE=Trey Songz - Trey Day
DYEAR=2007
DGENRE=R&B
TTITLE0=Intro: Trey Day (Feat. Bun B)
TTITLE1=Long Gone Missin
TTITLE2=Wonder Woman
TTITLE3=No Clothes On
TTITLE4=Sex For Yo Stereo
TTITLE5=Last Time
TTITLE6=Can't Help But Wait
TTITLE7=Grub On
TTITLE8=Fly Together (Feat. Jim Jones)
TTITLE9=Store Run
TTITLE10=Missin You
TTITLE11=Role Play
TTITLE12=We Should Be
TTITLE13=Fades Away (Bonus Track)
TTITLE14=Are You A Performa (Feat. AI) (Bonus Track)
EXTD=
EXTT0=
EXTT1=
EXTT2=
EXTT3=
EXTT4=
EXTT5=
EXTT6=
EXTT7=
EXTT8=
EXTT9=
EXTT10=
EXTT11=
EXTT12=
EXTT13=
EXTT14=
PLAYORDER=
